HIERARCHY
ROOT Hips
{
	OFFSET 0.00000 0.00000 0.00000
	CHANNELS 6 Xposition Yposition Zposition Zrotation Yrotation Xrotation 
	JOINT LHipJoint
	{
		OFFSET 0 0 0
		CHANNELS 3 Zrotation Yrotation Xrotation
		JOINT LeftHip
		{
			OFFSET 1.91541 -1.65633 0.85440
			CHANNELS 3 Zrotation Yrotation Xrotation
			JOINT LeftKnee
			{
				OFFSET 2.40910 -6.61896 0.00000
				CHANNELS 3 Zrotation Yrotation Xrotation
				JOINT LeftAnkle
				{
					OFFSET 2.77800 -7.63250 0.00000
					CHANNELS 3 Zrotation Yrotation Xrotation
					JOINT LeftToe
					{
						OFFSET 0.19516 -0.53621 1.89392
						CHANNELS 3 Zrotation Yrotation Xrotation
						End Site
						{
							OFFSET 0.00000 -0.00000 0.99107
						}
					}
				}
			}
		}
	}
	JOINT RHipJoint
	{
		OFFSET 0 0 0
		CHANNELS 3 Zrotation Yrotation Xrotation
		JOINT RightHip
		{
			OFFSET -1.74984 -1.65633 0.85439
			CHANNELS 3 Zrotation Yrotation Xrotation
			JOINT RightKnee
			{
				OFFSET -2.39569 -6.58210 0.00000
				CHANNELS 3 Zrotation Yrotation Xrotation
				JOINT RightAnkle
				{
					OFFSET -2.73118 -7.50387 0.00000
					CHANNELS 3 Zrotation Yrotation Xrotation
					JOINT RightToe
					{
						OFFSET -0.19068 -0.52390 2.09946
						CHANNELS 3 Zrotation Yrotation Xrotation
						End Site
						{
							OFFSET -0.00000 -0.00000 1.08860
						}
					}
				}
			}
		}
	}
	JOINT lowerback
	{
		OFFSET 0 0 0
		CHANNELS 3 Zrotation Yrotation Xrotation
		JOINT Chest
		{
			OFFSET -0.09682 2.03828 -0.28043
			CHANNELS 3 Zrotation Yrotation Xrotation
			JOINT Chest2
			{
				OFFSET -0.01078 2.01900 0.12441
				CHANNELS 3 Zrotation Yrotation Xrotation
				JOINT lowerneck
				{
					OFFSET 0 0 0
					CHANNELS 3 Zrotation Yrotation Xrotation
					JOINT Neck
					{
						OFFSET 0.03765 1.69444 0.15937
						CHANNELS 3 Zrotation Yrotation Xrotation
						JOINT Head
						{
							OFFSET -0.03952 1.65821 -0.08152
							CHANNELS 3 Zrotation Yrotation Xrotation
							End Site
							{
								OFFSET -0.01790 1.82532 -0.05295
							}
						}
					}
				}
				JOINT LeftCollar
				{
					OFFSET 0 0 0
					CHANNELS 3 Zrotation Yrotation Xrotation
					JOINT LeftShoulder
					{
						OFFSET 3.02434 1.50701 -0.08048
CHANNELS 3 Zrotation Xrotation Yrotation
						JOINT LeftElbow
						{
OFFSET 0 -5.790160 0.000000
CHANNELS 3 Zrotation Xrotation Yrotation
							JOINT LeftWrist
							{
OFFSET 0 -3.483140 0.000000
CHANNELS 3 Zrotation Xrotation Yrotation
								JOINT lhand
								{
									OFFSET 0 0 0
CHANNELS 3 Zrotation Xrotation Yrotation
									JOINT LFingers
									{
OFFSET 0 -0.587060 0.000000
CHANNELS 3 Zrotation Xrotation Yrotation
										End Site
										{
OFFSET 0 -0.473310 0.000000
										}
									}
								}
								JOINT LThumb
								{
OFFSET 0 0.000000 0.000000
CHANNELS 3 Zrotation Xrotation Yrotation
									End Site
									{
OFFSET 0 -0.480530 0.480530
									}
								}
							}
						}
					}
				}
				JOINT RightCollar
				{
					OFFSET 0 0 0
					CHANNELS 3 Zrotation Yrotation Xrotation
					JOINT RightShoulder
					{
						OFFSET -3.34016 1.06220 0.01684
CHANNELS 3 Zrotation Xrotation Yrotation
						JOINT RightElbow
						{
OFFSET 0 -5.698220 -0.000000
CHANNELS 3 Zrotation Xrotation Yrotation
							JOINT RightWrist
							{
OFFSET 0 -3.580770 0.000000
CHANNELS 3 Zrotation Xrotation Yrotation
								JOINT rhand
								{
									OFFSET 0 0 0
CHANNELS 3 Zrotation Xrotation Yrotation
									JOINT RFingers
									{
OFFSET 0 -0.620160 0.000000
CHANNELS 3 Zrotation Xrotation Yrotation
										End Site
										{
OFFSET 0 -0.499990 0.000000
										}
									}
								}
								JOINT RThumb
								{
OFFSET 0 0.000000 0.000000
CHANNELS 3 Zrotation Xrotation Yrotation
									End Site
									{
OFFSET 0 -0.507620 0.507620
									}
								}
							}
						}
					}
				}
			}
		}
	}
}
MOTION
Frames: 7
Frame Time: 0.008333333333333333
13.455015 17.196790 -18.823761 -179.622795 -20.198936 -171.658992 0.000000 0.000000 0.000000 -18.374263 -12.504429 -33.050452 9.413884 17.066063 57.509640 0.322973 2.469454 -11.930754 0.132798 -2.338548 -6.442814 0.000000 0.000000 0.000000 26.545731 10.221764 -15.609764 -2.884191 -10.505054 30.628369 -0.804943 -6.709693 -20.675763 -0.171543 -2.653184 7.315518 -3.079662 1.025204 1.296511 -0.450471 1.191253 -2.982696 1.206859 0.650866 -3.854921 6.573478 7.631197 -5.457897 -4.929675 9.989774 16.129372 -1.904800 4.697741 6.379016 0.000000 0.000000 0.000000 12.071926 18.491362 -44.866336 19.723802 -30.308135 5.391326 9.051247 -21.120161 15.828658 0.000000 0.000000 0.000000 -7.125000 0.000000 0.000000 -12.478652 14.223220 -9.256451 0.000000 0.000000 0.000000 -11.501650 14.236668 36.852872 -31.270104 -41.956760 -12.250273 -21.734751 0.344499 30.956513 0.000000 0.000000 0.000000 7.125000 0.000000 0.000000 11.932198 62.442663 -5.098995
13.380273 17.201903 -19.102490 -179.845553 -19.954555 -171.476083 0.000000 0.000000 0.000000 -18.631772 -12.816767 -34.171207 8.396592 16.401082 53.975204 0.346079 2.761456 -12.473443 0.051109 -1.423382 -3.914971 0.000000 0.000000 0.000000 26.661319 10.001401 -13.925289 -2.696349 -10.185675 29.580904 -0.841197 -7.042481 -21.265512 -0.127069 -2.297635 6.328826 -3.427222 1.168955 0.859111 -0.575674 1.393341 -2.765447 1.274294 0.751778 -3.397739 6.341631 7.773445 -6.234084 -4.822814 10.183459 16.264628 -1.784842 4.779559 6.550156 0.000000 0.000000 0.000000 12.116324 18.676583 -44.929784 19.830851 -30.438064 5.445386 9.607688 -21.439185 16.966115 0.000000 0.000000 0.000000 -7.125000 0.000000 0.000000 -12.088198 13.061102 -9.256155 0.000000 0.000000 0.000000 -11.715051 13.866761 36.679458 -32.504430 -42.945421 -13.083268 -23.718672 -0.114340 30.123286 0.000000 0.000000 0.000000 7.125000 0.000000 0.000000 9.087404 62.117399 -3.805468
13.305921 17.216955 -19.371256 -179.360689 -19.826462 -171.549050 0.000000 0.000000 0.000000 -18.047908 -13.028809 -35.183022 7.368811 15.631788 50.250756 0.441494 1.577815 -13.234663 0.011414 0.287098 0.789330 0.000000 0.000000 0.000000 27.515549 9.614070 -11.880444 -2.371029 -9.598273 27.686327 -0.888700 -7.166410 -21.795116 -0.234348 -3.056793 8.441318 -3.005381 1.338084 0.685509 -0.586882 1.633824 -2.816214 1.020888 0.859552 -3.349578 5.860215 7.853392 -6.128923 -4.365054 10.283361 16.048242 -1.563875 4.842265 6.417939 0.000000 0.000000 0.000000 12.223476 18.950750 -44.952909 19.838014 -30.446667 5.449007 9.510483 -21.351468 17.238943 0.000000 0.000000 0.000000 -7.125000 0.000000 0.000000 -12.147543 12.799023 -9.372496 0.000000 0.000000 0.000000 -11.993208 13.561918 36.891425 -33.424630 -43.652763 -13.714681 -24.037784 -0.858893 30.394139 0.000000 0.000000 0.000000 7.125000 0.000000 0.000000 8.880393 62.475848 -3.788828
13.231532 17.211756 -19.643105 -179.055863 -19.646847 -171.639447 0.000000 0.000000 0.000000 -17.503887 -13.422626 -35.390769 6.306146 14.715185 46.191993 0.532034 -1.124987 -13.438737 0.328009 3.676432 10.168435 0.000000 0.000000 0.000000 28.205841 9.472989 -9.698990 -2.074093 -9.017782 25.851657 -0.856227 -7.901767 -22.064069 -0.069321 -1.660282 4.568522 -2.958952 1.442364 0.638449 -0.602262 1.769394 -2.915588 0.973357 0.925764 -3.429924 6.160812 7.952314 -5.888020 -4.661679 10.437555 15.820534 -1.702151 4.920493 6.345203 0.000000 0.000000 0.000000 12.534572 19.468441 -45.276636 20.039690 -30.690085 5.551627 8.979539 -21.010311 16.262369 0.000000 0.000000 0.000000 -7.125000 0.000000 0.000000 -12.516174 13.800693 -9.399975 0.000000 0.000000 0.000000 -12.306485 13.618482 37.086510 -34.434521 -44.403935 -14.416335 -23.848610 -0.348320 30.621190 0.000000 0.000000 0.000000 7.125000 0.000000 0.000000 9.246121 62.656772 -3.984082
13.157307 17.203264 -19.917183 -179.042918 -19.556142 -171.427629 0.000000 0.000000 0.000000 -18.059128 -12.973929 -36.501515 5.242283 13.650075 41.856259 0.457338 -0.259266 -12.687473 0.026173 -0.778603 -2.140209 0.000000 0.000000 0.000000 28.578517 9.640527 -7.704652 -1.827210 -8.496273 24.231947 -0.883525 -8.567613 -22.835682 -0.237657 -3.109817 8.586544 -3.348958 1.337895 0.239364 -0.525783 1.619252 -3.146476 1.282017 0.859504 -3.452917 6.448065 8.087431 -4.808868 -5.213063 10.698180 15.080253 -1.950479 5.050339 5.986596 0.000000 0.000000 0.000000 12.315502 20.353089 -44.883913 20.272271 -30.968974 5.670816 8.884507 -20.970368 16.195914 0.000000 0.000000 0.000000 -7.125000 0.000000 0.000000 -12.580008 13.872889 -9.431408 0.000000 0.000000 0.000000 -12.723726 13.624806 37.712373 -35.445575 -45.127315 -15.128404 -23.102420 -0.909095 30.722231 0.000000 0.000000 0.000000 7.125000 0.000000 0.000000 10.185462 62.564048 -4.370517
13.071912 17.191616 -20.186377 -179.260462 -19.247176 -171.044197 0.000000 0.000000 0.000000 -18.295209 -13.372002 -36.756095 4.333027 12.589546 37.852803 0.464137 -0.165428 -12.816438 0.034344 -1.186302 -3.261783 0.000000 0.000000 0.000000 28.512342 9.339659 -6.047104 -1.597312 -7.970961 22.626192 -0.915248 -8.633235 -23.164794 -0.208651 -2.910894 8.032625 -3.549560 1.581398 -0.289411 -0.797782 1.945337 -3.147402 1.117944 1.015113 -3.169339 6.926089 8.093459 -5.076165 -5.897428 10.755177 15.081513 -2.221143 5.054135 6.100687 0.000000 0.000000 0.000000 12.615927 20.123846 -45.222248 20.175189 -30.852815 5.620915 9.186313 -21.164859 16.937743 0.000000 0.000000 0.000000 -7.125000 0.000000 0.000000 -12.365274 13.120530 -9.463365 0.000000 0.000000 0.000000 -12.809784 13.069993 37.679906 -35.715555 -45.316017 -15.320031 -22.020697 -0.983286 29.968510 0.000000 0.000000 0.000000 7.125000 0.000000 0.000000 10.938687 61.531965 -4.431475
12.985464 17.175975 -20.454628 -178.902715 -19.204046 -171.018484 0.000000 0.000000 0.000000 -17.984346 -13.774548 -36.990613 3.599246 11.604537 34.349996 0.475560 1.034740 -13.446749 0.095257 -1.983170 -5.459276 0.000000 0.000000 0.000000 29.101038 8.888751 -4.062814 -1.336647 -7.318509 20.663334 -0.855203 -9.126447 -23.048660 -0.024451 -1.001452 2.752863 -3.377732 1.626157 -0.433785 -0.752371 1.998684 -3.374084 1.067325 1.037634 -3.320390 6.642800 8.256292 -5.016053 -5.665976 10.972678 15.083471 -2.088837 5.159602 6.076553 0.000000 0.000000 0.000000 12.502335 20.530510 -44.827818 20.150030 -30.822596 5.608017 9.250306 -21.008322 17.070458 0.000000 0.000000 0.000000 -7.125000 0.000000 0.000000 -12.320879 12.984791 -9.463684 0.000000 0.000000 0.000000 -13.122417 13.435445 38.457846 -36.979476 -46.174133 -16.225488 -23.795770 -0.086998 30.337923 0.000000 0.000000 0.000000 7.125000 0.000000 0.000000 9.126261 62.356948 -3.866027
